<svg xmlns="http://www.w3.org/2000/svg" viewBox="0 0 64 64">
  <path fill="#A88BEA" fill-rule="evenodd" d="M 10.830 30.773 L 11.443 35.068 L 13.898 39.364 L 11.443 35.068 Z M 39.670 28.932 L 39.057 31.386 L 36.602 33.841 L 34.761 34.455 L 36.602 33.841 L 39.057 31.386 Z M 9.602 26.477 L 9.602 28.932 L 10.216 28.932 L 10.216 26.477 Z M 29.239 20.955 L 26.784 22.795 L 25.557 25.250 L 25.557 30.159 L 28.625 33.841 L 25.557 30.159 L 25.557 25.250 L 26.784 22.795 Z M 30.466 20.341 L 34.761 20.341 L 38.443 22.795 L 34.761 20.341 Z M 12.670 17.886 L 12.057 18.500 L 11.443 21.568 L 11.443 20.341 Z M 28.625 14.205 L 27.398 14.205 L 25.557 15.432 L 27.398 14.205 Z M 38.443 6.227 L 39.670 6.227 L 44.580 8.682 L 45.807 9.909 L 44.580 8.682 L 39.670 6.227 Z M 34.761 5.000 L 34.761 5.614 L 37.216 5.614 L 37.216 5.000 Z M 28.011 5.000 L 28.011 5.614 L 29.852 5.614 L 29.852 5.000 Z"/>
  <path fill="#6F42D8" fill-rule="evenodd" d="M 29.852 20.955 L 27.398 22.795 L 26.170 25.250 L 26.170 27.091 L 25.557 27.705 L 26.170 28.318 L 26.170 30.159 L 29.239 33.841 L 30.466 33.841 L 31.080 34.455 L 34.148 34.455 L 36.602 33.227 L 38.443 31.386 L 39.670 28.318 L 39.057 24.636 L 37.216 22.182 L 34.761 20.955 Z"/>
  <path fill="#4D2AA7" fill-rule="evenodd" d="M 31.080 5.000 L 30.466 6.227 L 27.398 6.227 L 22.489 8.068 L 21.261 9.295 L 19.420 9.909 L 15.125 14.205 L 12.670 18.500 L 12.670 19.727 L 11.443 22.182 L 10.830 29.545 L 11.443 30.159 L 12.057 35.068 L 16.352 42.432 L 31.693 58.386 L 33.534 58.386 L 45.807 46.114 L 45.807 45.500 L 50.716 39.977 L 53.784 33.227 L 53.784 21.568 L 50.102 14.205 L 44.580 9.295 L 37.830 6.227 L 34.761 6.227 L 34.148 5.000 Z M 29.239 12.977 L 35.375 12.977 L 39.670 14.818 L 43.966 18.500 L 47.034 24.636 L 47.034 30.773 L 45.807 33.841 L 40.898 39.364 L 35.989 41.818 L 29.239 41.818 L 24.943 39.977 L 20.034 35.068 L 18.193 30.773 L 18.193 24.023 L 20.034 19.727 L 24.330 15.432 Z"/>
</svg>
